<?xml version="1.0" encoding="UTF-8"?>
<svg id="Livello_1" xmlns="http://www.w3.org/2000/svg" version="1.1" viewBox="0 0 3333.78 1038.72">
  <!-- Generator: Adobe Illustrator 30.3.0, SVG Export Plug-In . SVG Version: 2.1.3 Build 182)  -->
  <defs>
    <style>
      .st0 {
        fill: #fff;
      }
    </style>
  </defs>
  <g id="ffEz2R">
    <g>
      <path class="st0" d="M2584.3,812.31l-234.64-.33,93.85-80.36,238.62-203.75,74.48-64.57,95.15-83.73h-600.58s0-153.67,0-153.67h839.06s.67,151.18.67,151.18l-158.32,136.15-95.63,82.54-92.13,78.17-160.53,138.39ZM2574.13,780.5l71.97-62.19,171.46-146.4,38.9-34.14,164.35-139.24,38.79-34.98-.21-106.15h-776.69s0,90.64,0,90.64h651.83c1.45.53.89,1.75-.77,2.67l-118.85,101.57-78.34,68.29-68.32,59.45-153.51,131.47-80.54,68.98,139.93.04Z"/>
      <path class="st0" d="M1189.31,720.15l-430.77-.07-515.25-.15.03-31.14,727.8-.23,232.41.25c-2.87,10.9-7.19,19.89-14.21,31.34Z"/>
      <path class="st0" d="M1195.19,349.96l-658.69-.2-293.34-.1-.22-30.8h938.82c5.4,9.72,10.01,18.84,13.42,31.1Z"/>
      <path class="st0" d="M1190.6,581.26l-947.29-.11-.06-30.65h919.59c11.32,8.09,19.78,17.87,27.76,30.76Z"/>
      <path class="st0" d="M1174.96,735.49c-10.2,12.68-23.19,22.18-36.86,30.9l-894.81-.02-.02-30.69h699.5s232.19-.2,232.19-.2Z"/>
      <path class="st0" d="M1169.79,303.09l-926.49.02-.4-29.95,891.54-.02c13.13,8.33,25.02,16.9,35.35,29.94Z"/>
      <path class="st0" d="M1114.07,519.46c9.83,5.24,18.59,9.08,26.19,15.27l-896.96.03v-30.72s895.29.03,895.29.03l-24.52,15.39Z"/>
      <path class="st0" d="M1040,805.04c-24.21,3.98-47.44,7.73-72.57,7.73H243.26s-.02-31.4-.02-31.4l865.73.04c-21.54,12.07-44.81,17.95-68.97,23.63Z"/>
      <path class="st0" d="M1103.22,257.36l-859.94.05-.37-31.52h729.3c45.48,3.29,89.95,10.94,131,31.47Z"/>
      <path class="st0" d="M963.85,379.58l-519.29-.02-1.14,16.73-200.38.08.24-30.98h955.32c2.4,9.66,3.09,19.64,3.22,31.49l-196.7.04c-10.87-11.64-24.12-15.3-41.26-17.33Z"/>
      <path class="st0" d="M242.99,458.27l201.44.03-.36,15.82,523.32-.11c14.21,0,25.38-7.56,35.5-15.94l182.42-.07c-7.35,12.27-15.66,21.46-25.37,31.05H243.28s-.29-30.78-.29-30.78Z"/>
      <polygon class="st0" points="1681.05 629.38 1655.43 612.64 1632.36 629.27 1370.87 629.1 1416.11 595.88 1919.48 596.21 1965.08 629.19 1681.05 629.38"/>
      <polygon class="st0" points="1964.39 411.19 1918.4 444.96 1691.37 445.17 1416.04 444.93 1370.48 411.18 1635.52 411.11 1667.49 434.09 1699.39 411.02 1964.39 411.19"/>
      <polygon class="st0" points="1854.87 491.41 1480.95 491.46 1433.99 457.59 1900.17 457.57 1854.87 491.41"/>
      <polygon class="st0" points="1901.32 583.49 1433.97 583.54 1480.43 549.74 1854.95 549.74 1901.32 583.49"/>
      <polygon class="st0" points="1630.84 537.79 1498.47 537.5 1520.7 520.5 1499.19 503.89 1835.68 503.97 1814.17 520.71 1836.98 537.82 1630.84 537.79"/>
      <polygon class="st0" points="2030.75 676.44 1745.34 676.59 1697.25 641.93 1983.52 641.89 2030.75 676.44"/>
      <polygon class="st0" points="2095.25 722.96 1811.84 723.11 1763.25 688.46 2048.66 688.4 2095.25 722.96"/>
      <polygon class="st0" points="2159.83 768.65 1879.72 768.78 1831.65 735.07 2113.34 734.83 2159.83 768.65"/>
      <polygon class="st0" points="1448.96 768.7 1175.41 768.73 1222.11 734.93 1494.79 734.86 1448.96 768.7"/>
      <polygon class="st0" points="1983.69 398.41 1717.81 398.42 1763.3 364.54 2029.2 364.6 1983.69 398.41"/>
      <polygon class="st0" points="1617.52 398.73 1420.53 398.65 1351.68 398.55 1306.33 364.63 1570.9 364.52 1617.52 398.73"/>
      <polygon class="st0" points="2045.97 352.79 1781.56 352.72 1827.36 318.11 2092.62 318.2 2045.97 352.79"/>
      <polygon class="st0" points="1553.42 352.72 1289.55 352.81 1242.71 318.2 1506.69 318.08 1553.42 352.72"/>
      <polygon class="st0" points="2173.79 260.53 1909.36 260.46 1956.85 225.88 2221.23 225.92 2173.79 260.53"/>
      <polygon class="st0" points="1490.33 307.06 1226.09 306.98 1178.75 272.47 1442.64 272.36 1490.33 307.06"/>
      <polygon class="st0" points="1426.03 260.48 1161.81 260.62 1114.09 225.97 1378.44 225.92 1426.03 260.48"/>
      <polygon class="st0" points="1503.95 723.1 1240.05 723.03 1287.16 688.42 1550.62 688.51 1503.95 723.1"/>
      <polygon class="st0" points="1568.55 676.52 1304.78 676.23 1351.76 641.86 1614.72 641.97 1568.55 676.52"/>
      <polygon class="st0" points="2110.8 306.22 2061.58 306.65 1844.76 306.64 1891.82 272.36 2155.9 272.49 2110.8 306.22"/>
      <polygon class="st0" points="2222.04 812.76 1946.49 812.81 1900.77 781.43 2178.02 781.35 2222.04 812.76"/>
      <polygon class="st0" points="1386.81 812.84 1113.93 812.8 1157.69 781.38 1430.29 781.41 1386.81 812.84"/>
      <polygon class="st0" points="443.84 442.55 243.1 442.62 242.86 411.85 444.23 411.81 443.84 442.55"/>
      <polygon class="st0" points="443.83 626.92 243.08 626.98 242.87 596.22 443.72 596.18 443.83 626.92"/>
      <polygon class="st0" points="443.71 673.4 243.01 673.42 242.99 642.72 443.75 642.64 443.71 673.4"/>
      <path class="st0" d="M1207.72,673.41h-200.89c9.97-8.86,14.9-18.85,16.84-31.22l186.05.14-2,31.08Z"/>
      <path class="st0" d="M1207.41,626.92l-183.94.12c-.8-12.48-5.46-22.64-16.32-30.8l191.14-.06c5.14,9,7.63,18.66,9.12,30.74Z"/>
      <path class="st0" d="M1192.88,442.6h-180.67c3.35-10.02,4.2-19.99.53-30.9l188.04-.03c-1.38,10.23-4.06,20.21-7.9,30.93Z"/>
    </g>
  </g>
</svg>